<svg id="Layer_1" height="512" viewBox="0 0 512 512" width="512" xmlns="http://www.w3.org/2000/svg" data-name="Layer 1"><path d="m51.26 299.28-3.95 22.27-20.12 14.41c-7.4-5.47-16.06-12.13-16.19-16.5-.22-7.36 8.97-19.14 8.97-19.14 6.13-3.49 22.42-.62 31.29-1.04z" fill="#706a37"/><path d="m401.391 116.429 6.7-13.51c11.16 3.95 21.6 5.06 28.3 8.58 37.83 19.8 63.86 79.77 64.55 115.63 1.77 92.26-35.53 158.02-80.89 200.07-17.22 15.96-47.86 39.58-97.27 42.67-2.42.15-5.51.49-8.83.82l10.17-26.45-15.14-18.98c9.97-13.27 23.98-28.1 34.28-42.06 25.63-22.8 47.36-54.42 61.65-98.69 11.93-36.96 17.91-104.8-7.48-140.61-4.49-6.35-13.54-12.24-21.91-21.06l23.96-2.56z" fill="#fff27d"/><path d="m500.942 227.13c-.691-35.861-26.721-95.831-64.551-115.631-6.7-3.52-17.14-4.63-28.3-8.58l-6.7 13.51-1.909 3.85-.063.007c22.448 25.617 37.567 62.354 39.372 87.684 6.553 92.044-27.286 159.65-70.4 204-9.761 10.03-24.142 23.03-44.584 33.088l-9.855 25.632c3.319-.331 6.41-.671 8.83-.821 49.41-3.09 80.05-26.71 97.269-42.669 45.361-42.051 82.66-107.81 80.891-200.07z" fill="#ffe33b"/><path d="m143.1 391.229-9.76-18.16c18.84-8.86 54.85-21.82 69.33-26.78 56.09-19.21 104.56-86 118.02-142.83 3.45-14.58 7.37-27.97 21.61-69.29a20.9 20.9 0 0 0 1.01-4.62l16.16 5.25 16.04-11.96h.01c8.37 8.82 17.42 14.71 21.91 21.06 25.39 35.81 19.41 103.65 7.48 140.61-14.29 44.27-36.02 75.89-61.65 98.69-26.86 23.89-58 38.12-89.37 47.1-23.28 6.67-78.15 10.16-128.84-9.78z" fill="#fff27d"/><path d="m397.431 143.9c-4.489-6.35-13.54-12.24-21.91-21.06h-.01l-10.722 8c11.83 38.109 3.027 91.233-8.821 121.959-16.735 43.405-40.194 73.764-67.055 95.1-28.15 22.356-60.035 34.828-91.857 42.045-11.822 2.684-31.505 4.131-54.426 2.054l-17.579 28.526c50.691 19.94 105.561 16.45 128.84 9.78 31.37-8.979 62.511-23.21 89.37-47.1 25.63-22.8 47.361-54.421 61.651-98.69 11.929-36.965 17.91-104.805-7.481-140.614z" fill="#f9d438"/><path d="m47.311 321.549 3.95-22.27a19.553 19.553 0 0 0 2.79-.3c16.29-3.12 54.9-6.56 73.23-8.37 45.98-4.53 120.49-50.58 147.47-100.36 6.92-12.77 11.59-26.21 35.38-61.26a18.959 18.959 0 0 0 2.08-4.09l28.81 4.55 2.24.08.05.02a20.9 20.9 0 0 1 -1.01 4.62c-14.24 41.32-18.16 54.71-21.61 69.29-13.46 56.83-61.93 123.62-118.02 142.83-14.48 4.96-50.49 17.92-69.33 26.78-4.29 2.02-13.05 3.35-20.74 5.26-20.54-4.11-51.87-15.88-78.32-37.04-1.89-1.51-4.41-3.34-7.09-5.33z" fill="#f8ee4f"/><path d="m312.211 124.9c-.539 1.46-30.539 52.58-37.459 65.351-26.981 49.779-101.49 95.829-147.471 100.359-18.33 1.81-56.939 5.25-73.23 8.37a19.394 19.394 0 0 1 -2.789.3l-3.951 22.27s52.07 12.792 92.416 2.886c44.87-11.018 120.49-50.581 147.47-100.36 6.92-12.77 44.6-96.082 44.6-96.082z" fill="#fffac1"/><path d="m308.981 425.259 15.14 18.98-10.17 26.45c-9.16.92-20.05 1.81-23.08-1.34-5.11-5.3-6.23-20.19-6.23-20.19 2.45-7.5 19.62-17.63 24.34-23.9z" fill="#7f7841"/><path d="m375.521 122.839h-.01l-16.04 11.96-16.16-5.25c2.01-17.99-15.16-42.52-15.16-42.52l.03-13.14s-10.81-16.21-3.57-29.37a4.32 4.32 0 0 1 3.53-1.92c0-.01.01 0 .01 0 7.16-.89 21.48 5.46 21.48 5.46.64.69 1.24 1.36 1.79 2.03 9.29 11.29 5.66 19.97 5.87 28.15.54 21.51 8.97 34.85 18.23 44.6z" fill="#706a37"/><path d="m328.151 87.029s17.17 24.53 15.16 42.52l-.05-.02-2.24-.08-28.81-4.55c6.06-16.35-5.98-43.86-5.98-43.86l5.94-12.15s-6.02-17.97 4.1-28.44l11.87 2.15a4.32 4.32 0 0 0 -3.53 1.92c-7.24 13.16 3.57 29.37 3.57 29.37z" fill="#8c8448"/><path d="m143.638 397.233c-.373 0-.594 0-.655 0a6 6 0 0 1 .237-12 150.583 150.583 0 0 0 28.854-3.233 6 6 0 1 1 2.356 11.767 165.131 165.131 0 0 1 -30.792 3.466z" fill="#ffe33b"/><path d="m455.605 171.711a6 6 0 0 1 -5.421-3.423c-16.7-35.089-31.873-43.728-49.527-45.9a6 6 0 0 1 1.469-11.91c31.592 3.893 46.976 27.608 58.894 52.656a6 6 0 0 1 -5.415 8.58z" fill="#f9d438"/><path d="m408.091 102.919-6.7 13.51-1.91 3.85-23.96 2.56c-9.26-9.75-17.69-23.09-18.23-44.6-.21-8.18 3.42-16.86-5.87-28.15l1.17-.41c15.41 5.56 15.97 15.32 19.99 22.7 9.98 18.34 23.18 26.17 35.51 30.54z" fill="#8c8448"/><path d="m112.6 378.329c7.69-1.91 16.45-3.24 20.74-5.26l9.76 18.16-18.05 29.29c-8.71-3.43-27.23-9.47-29.01-15.33-2.2-7.26 3.78-21.47 3.78-21.47 2.391-2.39 7.321-4.04 12.78-5.39z" fill="#706a37"/></svg>