<svg id="Layer_1" height="512" viewBox="0 0 512 512" width="512" xmlns="http://www.w3.org/2000/svg" data-name="Layer 1"><path d="m292.792 81.251.116-.06c-19.118-8.625-34.915-21.838-50.192-34.617-15-12.544-30.5-25.514-48.877-33.79-23.339-11.076-44.781-10.284-58.846 2.163-7.414 6.562-12.743 21.972-8.78 32.774 1.632 4.448 6.25 11.95 18.84 12.217h.13c5.216 0 8.94-6.691 2.834-12.093-7.807.647-9.712-2.007-10.538-4.26-2.114-5.759 1.289-15.955 5.468-19.654 10.151-8.988 26.513-9.218 44.988-.664.107.057.216.11.329.161l.493.225c15.729 7.476 30.758 20.273 41.233 35.109 11.2 15.864 19.075 32.583 16.727 47.077l-.077 2.959c-1.82 11.24-7.59 57.69 23.1 83.79a7.875 7.875 0 0 0 2.33 1.28c.01 0 .01 0 .02.01 8.11 3.01 27.32.9 27.32.9l7.15-22.68 23.19 4.9 8.47-21.42 21.27 4.23 13.16-18.71a17.511 17.511 0 0 0 -2.081-11.7c-21.51-36.876-55.307-38.554-77.777-48.147z" fill="#39591b"/><path d="m290.44 86.66c-22.635-10.212-40.269-26.174-58.12-40.936 12.38 17.435 24.78 35.438 42.514 49.816 18.33 14.867 49.7 24.5 62.526 62.215l.86-2.175 21.27 4.23 13.16-18.71c-21.65-43.25-58.68-43.82-82.21-54.44z" fill="#5c8431"/><path d="m372.65 141.1c118.05 144.54 58.29 302.59-52.99 347.37-89.43 35.98-213.62-8.07-244.8-99.28 42.68 66.49 146.65 84.59 213.14 41.91s72.29-121.35 29.61-187.85c-11.26-17.53-28.88-38.16-45.52-49.37 8.11 3.01 27.32.9 27.32.9l7.15-22.68 23.19 4.9 8.47-21.42 21.27 4.23z" fill="#689b2d"/><path d="m372.65 141.1-13.16 18.71-19.828-3.943c81.717 133.7 23.013 269.845-78.955 310.878-34.086 13.714-73.219 15.79-110.33 8.071 50.858 28.169 116.2 35.013 169.283 13.654 111.28-44.78 171.04-202.83 52.99-347.37z" fill="#89c140"/><g fill="#e9e9e9"><path d="m400.579 382.122a6.005 6.005 0 0 1 -5.623-8.092c1.112-2.993 2.159-6.012 3.112-8.977a200.343 200.343 0 0 0 7.036-29.576 210.936 210.936 0 0 0 2.392-42.288 6 6 0 0 1 11.988-.519 222.977 222.977 0 0 1 -2.529 44.695 212.584 212.584 0 0 1 -7.461 31.356c-1.01 3.138-2.115 6.33-3.29 9.489a6 6 0 0 1 -5.625 3.912z"/><path d="m380.744 421.371a6 6 0 0 1 -5.015-9.286c2.412-3.685 4.729-7.519 6.89-11.4a6 6 0 0 1 10.483 5.842c-2.3 4.124-4.766 8.2-7.331 12.124a6 6 0 0 1 -5.027 2.72z"/></g></svg>