<svg width="30" height="31" viewBox="0 0 30 31" fill="none" xmlns="http://www.w3.org/2000/svg">
<path d="M22.5 25.86C22.5 28.2657 20.4 30.2143 17.8125 30.2143C15.225 30.2143 13.125 28.2657 13.125 25.86C13.125 23.4542 15.225 21.5056 17.8125 21.5056C20.4 21.5056 22.5 23.4542 22.5 25.86Z" fill="#888888"/>
<path fill-rule="evenodd" clip-rule="evenodd" d="M22.5 4.08832V25.86H20.625V4.08832H22.5Z" fill="#888888"/>
<path d="M20.625 3.69644C20.6253 3.19332 20.7756 2.70582 21.0504 2.31685C21.3252 1.92788 21.7076 1.66143 22.1325 1.56282L27.7575 0.256523C28.0294 0.193414 28.31 0.201123 28.579 0.279094C28.8481 0.357065 29.0989 0.503357 29.3134 0.707431C29.5279 0.911504 29.7007 1.16828 29.8194 1.45925C29.9382 1.75023 29.9998 2.06816 30 2.39014V6.2655L20.625 8.44266V3.69644Z" fill="#888888"/>
<path fill-rule="evenodd" clip-rule="evenodd" d="M0 22.5942C0 22.3055 0.0987721 22.0286 0.274587 21.8245C0.450403 21.6203 0.68886 21.5056 0.9375 21.5056H7.5C7.74864 21.5056 7.9871 21.6203 8.16291 21.8245C8.33873 22.0286 8.4375 22.3055 8.4375 22.5942C8.4375 22.8829 8.33873 23.1598 8.16291 23.364C7.9871 23.5681 7.74864 23.6828 7.5 23.6828H0.9375C0.68886 23.6828 0.450403 23.5681 0.274587 23.364C0.0987721 23.1598 0 22.8829 0 22.5942ZM0 13.8856C0 13.5968 0.0987721 13.32 0.274587 13.1158C0.450403 12.9117 0.68886 12.797 0.9375 12.797H15C15.2486 12.797 15.4871 12.9117 15.6629 13.1158C15.8387 13.32 15.9375 13.5968 15.9375 13.8856C15.9375 14.1743 15.8387 14.4512 15.6629 14.6553C15.4871 14.8595 15.2486 14.9741 15 14.9741H0.9375C0.68886 14.9741 0.450403 14.8595 0.274587 14.6553C0.0987721 14.4512 0 14.1743 0 13.8856ZM0 5.1769C0 4.88819 0.0987721 4.61131 0.274587 4.40716C0.450403 4.20301 0.68886 4.08832 0.9375 4.08832H15C15.2486 4.08832 15.4871 4.20301 15.6629 4.40716C15.8387 4.61131 15.9375 4.88819 15.9375 5.1769C15.9375 5.46561 15.8387 5.7425 15.6629 5.94664C15.4871 6.15079 15.2486 6.26548 15 6.26548H0.9375C0.68886 6.26548 0.450403 6.15079 0.274587 5.94664C0.0987721 5.7425 0 5.46561 0 5.1769Z" fill="#888888"/>
</svg>
