<?xml version="1.0"?>
<svg xmlns="http://www.w3.org/2000/svg" id="Layer_2" data-name="Layer 2" viewBox="0 0 32 32" width="512" height="512"><path d="M12,27h1V25H12A9,9,0,0,1,11,7.059V10a1,1,0,0,0,1.707.707l4-4a1,1,0,0,0,0-1.414l-4-4A1,1,0,0,0,11,2V5.051A11,11,0,0,0,12,27ZM13,4.414,14.586,6,13,7.586Z"/><path d="M20.383,21.076a1,1,0,0,0-1.09.217l-4,4a1,1,0,0,0,0,1.414l4,4A1,1,0,0,0,21,30V26.949A11,11,0,0,0,20,5H19V7h1a9,9,0,0,1,1,17.941V22A1,1,0,0,0,20.383,21.076ZM19,27.586,17.414,26,19,24.414Z"/></svg>
