<svg fill="#838f9f" id="Capa_1" enable-background="new 0 0 323.358 323.358" height="512" viewBox="0 0 323.358 323.358" width="512" xmlns="http://www.w3.org/2000/svg"><g><g><path d="m48.863 323.358h225.632c23.653 0 42.875-19.222 42.875-42.875v-213.656c0-23.653-19.222-42.875-42.875-42.875h-17.006v-11.976c0-6.587-5.39-11.976-11.977-11.976s-11.976 5.389-11.976 11.976v11.976h-143.714v-11.976c0-6.587-5.39-11.976-11.977-11.976s-11.976 5.389-11.976 11.976v11.976h-17.006c-23.653 0-42.875 19.222-42.875 42.875v213.656c0 23.653 19.222 42.875 42.875 42.875zm-18.922-256.531c0-10.419 8.503-18.922 18.922-18.922h17.006v11.976c0 6.587 5.389 11.976 11.976 11.976s11.976-5.389 11.976-11.976v-11.976h143.715v11.976c0 6.587 5.389 11.976 11.976 11.976s11.976-5.389 11.976-11.976v-11.976h17.006c10.419 0 18.922 8.503 18.922 18.922v213.656c0 10.419-8.503 18.922-18.922 18.922h-225.631c-10.419 0-18.922-8.503-18.922-18.922z"/><circle cx="92.816" cy="122.756" r="14.97"/><circle cx="158.685" cy="122.756" r="14.97"/><circle cx="224.554" cy="122.756" r="14.97"/><circle cx="92.816" cy="182.637" r="14.97"/><circle cx="158.685" cy="182.637" r="14.97"/><circle cx="224.554" cy="182.637" r="14.97"/><circle cx="92.816" cy="242.518" r="14.97"/><circle cx="158.685" cy="242.518" r="14.97"/><circle cx="224.554" cy="242.518" r="14.97"/></g></g></svg>