<svg width="37" height="41" viewBox="0 0 37 41" fill="none" xmlns="http://www.w3.org/2000/svg">
<path d="M1 11.5L2 27V28.5L25 30L29.5 7L12.5 1L1 11.5Z" stroke="#44CC83"/>
<path d="M36 26.5C36 33.9395 29.7487 40 22 40C14.2513 40 8 33.9395 8 26.5C8 19.0605 14.2513 13 22 13C29.7487 13 36 19.0605 36 26.5Z" stroke="#44CC83"/>
<path d="M18.6837 21.8374C17.7757 21.8374 16.9089 21.9942 16.0182 21.9942" stroke="#44CC83" stroke-width="3" stroke-linecap="round"/>
<path d="M22.7602 19.9559C23.1133 19.7406 25.2385 18.6016 24.5197 17.8828C24.2031 17.5662 23.9719 17.7701 24.3281 17.2556C24.5564 16.9258 24.8059 16.743 25.0772 16.4717C25.2924 16.2565 25.1554 15.3652 24.9204 15.1303C24.459 14.6689 23.3048 15.0954 22.7602 15.0954" stroke="#44CC83" stroke-width="3" stroke-linecap="round"/>
<path d="M22.2898 14.7819C20.7603 14.7819 18.9137 14.6956 17.5165 15.3307C17.1415 15.5011 16.4204 15.8321 16.0183 15.8794C15.5697 15.9322 15.0125 16.4607 14.6072 16.6634" stroke="#44CC83" stroke-width="3" stroke-linecap="round"/>
<path d="M14.7639 17.6041C13.695 18.0212 12.4844 18.6028 11.9069 19.6423C11.4749 20.42 11.0374 21.1447 10.609 21.9158C10.1568 22.7297 10.2784 23.7375 9.90347 24.5812C9.51376 25.458 9.43311 26.2074 9.43311 27.1682" stroke="#44CC83" stroke-width="3" stroke-linecap="round"/>
<path d="M10.8442 27.325C14.0023 27.325 17.1245 27.7954 20.2516 27.7954" stroke="#44CC83" stroke-width="3" stroke-linecap="round"/>
<path d="M20.8787 27.7953C21.8922 27.5976 22.5698 27.7953 23.5441 27.7953" stroke="#44CC83" stroke-width="3" stroke-linecap="round"/>
<path d="M15.0775 21.367C15.9023 20.2329 16.7849 19.2289 17.9694 18.4751C18.634 18.0522 17.8756 18.0497 17.4294 18.0745C16.8472 18.1068 16.3912 18.525 15.8615 18.7016" stroke="#44CC83" stroke-width="3" stroke-linecap="round"/>
<path d="M21.1923 17.1337C20.3341 17.1337 18.5273 17.3024 18.2482 18.388C17.8575 19.9072 19.3969 19.7721 20.2516 19.1371C20.6635 18.8311 20.8359 18.4111 21.1923 18.0745C21.5308 17.7548 22.0138 17.616 22.3595 17.2905C22.5284 17.1316 21.5028 18.3843 21.262 18.6319C20.762 19.1462 20.0409 19.529 19.3109 19.4769C18.2811 19.4033 17.3666 18.8584 16.2709 18.8584C15.4356 18.8584 14.5587 18.8743 13.7361 19.0239C12.9529 19.1663 12.1237 19.7252 11.9505 20.5047C11.8203 21.0903 11.0621 24.6078 12.0986 24.6596C13.4905 24.7292 13.98 24.0692 13.98 22.7433C13.98 22.3631 14.1497 21.8374 13.6664 21.8374C13.3179 21.8374 13.108 21.8818 12.8477 22.1161C11.2588 23.5461 15.0248 25.4648 16.3319 25.2781C17.3114 25.1381 17.6414 23.677 17.4294 22.9349C17.0942 21.7619 15.3595 22.984 14.9556 23.3879C14.4489 23.8946 14.8434 24.5658 15.4173 24.738C16.256 24.9896 17.1074 25 17.9694 24.8599C18.8415 24.7182 20.6526 24.5754 21.2272 23.7798C21.2689 23.7221 24.1996 19.7991 22.7602 19.7991" stroke="#44CC83" stroke-width="3" stroke-linecap="round"/>
<path d="M19.6244 21.2102C19.6651 21.419 19.6336 22.3841 20.0164 22.299C20.2967 22.2367 20.5651 21.8773 20.5651 21.6022C20.5651 21.2053 20.9065 20.8132 21.0355 20.4263" stroke="#44CC83" stroke-width="3" stroke-linecap="round"/>
<path d="M26.7054 14.8488C26.6038 14.9282 26.48 14.9915 26.48 15.1306" stroke="#44CC83" stroke-width="3" stroke-linecap="round"/>
<path d="M26.3673 15.6942C26.2723 16.127 26.0546 16.5262 25.9758 16.9593C25.8907 17.4275 25.7285 17.8923 25.5781 18.3434" stroke="#44CC83" stroke-width="3" stroke-linecap="round"/>
<path d="M25.4654 18.6816C25.3896 19.1703 25.1459 19.6753 25.1272 20.1597C25.1072 20.6807 24.8601 21.1245 24.7452 21.6127C24.634 22.0855 24.378 22.545 24.2692 23.0344C24.1606 23.5232 23.9875 24.0173 23.8308 24.4874" stroke="#44CC83" stroke-width="3" stroke-linecap="round"/>
<path d="M25.0708 22.4019C24.9422 22.7396 24.9271 23.0776 24.789 23.3883C24.6437 23.7153 24.4508 24.0628 24.4508 24.431" stroke="#44CC83" stroke-width="3" stroke-linecap="round"/>
<path d="M23.9999 24.6565C23.1853 24.9744 22.2221 25.2336 21.3569 25.3298C20.9442 25.3756 20.5325 25.526 20.1231 25.6022C19.9246 25.6391 19.1702 25.6147 19.7724 25.6147" stroke="#44CC83" stroke-width="3" stroke-linecap="round"/>
<path d="M21.4634 25.6147C21.9899 25.6147 22.4956 25.6711 23.0135 25.6711C23.1926 25.6711 23.3775 25.6556 23.5521 25.6993C23.6414 25.7216 23.797 25.76 23.8871 25.715C23.9161 25.7005 24.0304 25.5667 24.0531 25.6461C24.1179 25.873 23.9555 26.1314 23.9435 26.3475C23.9348 26.5049 23.7807 26.6468 23.7744 26.811C23.765 27.0559 23.8308 27.2892 23.8308 27.5312" stroke="#44CC83" stroke-width="3" stroke-linecap="round"/>
<path d="M24.1126 28.2076C24.202 28.666 24.1402 28.6659 23.7462 28.6053C23.4721 28.5631 23.2119 28.433 22.9289 28.433" stroke="#44CC83" stroke-width="3" stroke-linecap="round"/>
<path d="M21.5198 28.2076H21.8016" stroke="#44CC83" stroke-width="3" stroke-linecap="round"/>
</svg>
